<svg width="128" height="128" viewBox="0 0 128 128" fill="none" xmlns="http://www.w3.org/2000/svg">
<path fill-rule="evenodd" clip-rule="evenodd" d="M24.2599 73.5C31.4999 80.79 59.1199 99.42 59.1199 99.42C93.2799 73.09 97.8199 68.1 98.8099 52C99.6099 39 88.3799 28.45 75.5499 28.45C72.0737 28.4473 68.6444 29.2526 65.5327 30.8023C62.4211 32.3521 59.7122 34.6039 57.6199 37.38C52.9599 31.54 46.7799 28.45 39.7699 28.45C33.5653 28.5002 27.6333 31.0064 23.2721 35.42C18.911 39.8336 16.4759 45.7952 16.4999 52C16.4999 65.52 22.1299 71.1 24.2599 73.55" fill="#FEDD2E"/>
<path d="M90.9599 60.43H82.2799C82.0015 60.4291 81.7274 60.4983 81.4827 60.6311C81.2381 60.7639 81.0308 60.9561 80.8799 61.19L78.5299 64.88L74.7599 55C74.6362 54.6928 74.4235 54.4295 74.1491 54.2441C73.8747 54.0587 73.551 53.9597 73.2199 53.9597C72.8887 53.9597 72.5651 54.0587 72.2906 54.2441C72.0162 54.4295 71.8035 54.6928 71.6799 55L65.5499 70.62L61.6099 49.41" stroke="black" stroke-width="2.38" stroke-linecap="round" stroke-linejoin="round"/>
<path d="M60.7199 44.62L60.0099 40.77C59.9323 40.3991 59.7294 40.0663 59.4353 39.8274C59.1412 39.5884 58.7739 39.458 58.3949 39.458C58.016 39.458 57.6487 39.5884 57.3546 39.8274C57.0605 40.0663 56.8576 40.3991 56.7799 40.77L52.1599 62.77L49.2199 55C49.1002 54.7087 48.9 54.4575 48.6429 54.2757C48.3857 54.0939 48.0821 53.989 47.7675 53.9733C47.453 53.9575 47.1404 54.0316 46.8664 54.1869C46.5924 54.3421 46.3682 54.5721 46.2199 54.85L43.3799 60.41H30.4399" stroke="black" stroke-width="2.38" stroke-linecap="round" stroke-linejoin="round"/>
<path d="M69.6899 98.8C69.6299 98.8 64.3899 94.46 61.0599 92.26C51.6299 86.05 39.7499 78.21 33.6199 66.89" stroke="black" stroke-width="2.38" stroke-linecap="round" stroke-linejoin="round"/>
<path d="M29.5601 51.06C29.6129 44.9351 32.094 39.0815 36.4588 34.7842C40.8235 30.487 46.7151 28.0974 52.8401 28.14C56.2839 28.1312 59.6843 28.9095 62.7814 30.4156C65.8785 31.9217 68.5904 34.1157 70.7101 36.83C72.8405 34.1103 75.5644 31.9135 78.6737 30.4074C81.7829 28.9013 85.1953 28.1257 88.6501 28.14C94.775 28.0974 100.667 30.487 105.031 34.7842C109.396 39.0815 111.877 44.9351 111.93 51.06C111.93 60.73 107.86 68.5 102.16 74.94" stroke="black" stroke-width="2.38" stroke-linecap="round" stroke-linejoin="round"/>
<path fill-rule="evenodd" clip-rule="evenodd" d="M24.2599 73.5C31.4999 80.79 59.1199 99.42 59.1199 99.42C93.2799 73.09 97.8199 68.1 98.8099 52C99.6099 39 88.3799 28.45 75.5499 28.45C72.0737 28.4473 68.6444 29.2526 65.5327 30.8023C62.4211 32.3521 59.7122 34.6039 57.6199 37.38C52.9599 31.54 46.7799 28.45 39.7699 28.45C33.5653 28.5002 27.6333 31.0064 23.2721 35.42C18.911 39.8336 16.4759 45.7952 16.4999 52C16.4999 65.52 22.1299 71.1 24.2599 73.55" fill="#FEDD2E"/>
<path d="M90.9599 60.43H82.2799C82.0015 60.4291 81.7274 60.4983 81.4827 60.6311C81.2381 60.7639 81.0308 60.9561 80.8799 61.19L78.5299 64.88L74.7599 55C74.6362 54.6928 74.4235 54.4295 74.1491 54.2441C73.8747 54.0587 73.551 53.9597 73.2199 53.9597C72.8887 53.9597 72.5651 54.0587 72.2906 54.2441C72.0162 54.4295 71.8035 54.6928 71.6799 55L65.5499 70.62L61.6099 49.41" stroke="black" stroke-width="2.38" stroke-linecap="round" stroke-linejoin="round"/>
<path d="M60.7199 44.62L60.0099 40.77C59.9323 40.3991 59.7294 40.0663 59.4353 39.8274C59.1412 39.5884 58.7739 39.458 58.3949 39.458C58.016 39.458 57.6487 39.5884 57.3546 39.8274C57.0605 40.0663 56.8576 40.3991 56.7799 40.77L52.1599 62.77L49.2199 55C49.1002 54.7087 48.9 54.4575 48.6429 54.2757C48.3857 54.0939 48.0821 53.989 47.7675 53.9733C47.453 53.9575 47.1404 54.0316 46.8664 54.1869C46.5924 54.3421 46.3682 54.5721 46.2199 54.85L43.3799 60.41H30.4399" stroke="black" stroke-width="2.38" stroke-linecap="round" stroke-linejoin="round"/>
<path d="M69.6899 98.8C69.6299 98.8 64.3899 94.46 61.0599 92.26C51.6299 86.05 39.7499 78.21 33.6199 66.89" stroke="black" stroke-width="2.38" stroke-linecap="round" stroke-linejoin="round"/>
<path d="M29.5601 51.06C29.6129 44.9351 32.094 39.0815 36.4588 34.7842C40.8235 30.487 46.7151 28.0974 52.8401 28.14C56.2839 28.1312 59.6843 28.9095 62.7814 30.4156C65.8785 31.9217 68.5904 34.1157 70.7101 36.83C72.8405 34.1103 75.5644 31.9135 78.6737 30.4074C81.7829 28.9013 85.1953 28.1257 88.6501 28.14C94.775 28.0974 100.667 30.487 105.031 34.7842C109.396 39.0815 111.877 44.9351 111.93 51.06C111.93 60.73 107.86 68.5 102.16 74.94" stroke="black" stroke-width="2.38" stroke-linecap="round" stroke-linejoin="round"/>
</svg>
